<svg xmlns="http://www.w3.org/2000/svg" id="link" viewBox="0 0 96 96">
  <path d="M 18.02,12.74
           C 23.47,11.41 32.14,12.00 38.00,12.00
             38.00,12.00 72.00,12.00 72.00,12.00
             82.54,12.15 83.98,16.56 84.00,26.00
             84.00,26.00 84.00,64.00 84.00,64.00
             84.00,68.37 84.73,76.35 82.26,79.89
             79.18,84.33 74.77,83.99 70.00,84.00
             70.00,84.00 24.00,84.00 24.00,84.00
             15.20,83.88 12.12,80.80 12.00,72.00
             12.00,72.00 12.00,25.00 12.00,25.00
             12.03,18.74 12.12,15.99 18.02,12.74 Z
           M 24.02,18.17
           C 17.59,20.35 18.03,24.02 18.00,30.00
             18.00,30.00 18.00,65.00 18.00,65.00
             18.00,68.13 17.73,72.99 19.85,75.49
             22.16,78.20 26.75,77.98 30.00,78.00
             30.00,78.00 65.00,78.00 65.00,78.00
             68.13,78.00 72.99,78.27 75.49,76.15
             78.37,73.70 77.99,68.45 78.00,65.00
             78.00,65.00 78.00,29.00 78.00,29.00
             77.95,25.58 78.03,21.34 74.72,19.31
             72.27,17.81 67.84,18.00 65.00,18.17
             65.00,18.17 24.02,18.17 24.02,18.17 Z
           M 60.00,29.85
           C 60.00,29.85 46.23,29.85 46.23,29.85
             43.18,28.79 43.18,25.74 45.45,24.57
             46.82,23.86 50.38,24.00 52.00,24.00
             52.00,24.00 72.00,24.00 72.00,24.00
             72.00,24.00 72.00,46.00 72.00,46.00
             71.85,54.51 67.55,52.46 66.57,50.55
             65.65,48.78 66.00,38.63 66.00,36.00
             66.00,36.00 41.00,60.98 41.00,60.98
             38.96,62.95 33.85,68.10 30.78,65.17
             27.63,62.16 33.07,57.01 35.02,55.00
             35.02,55.00 60.00,29.85 60.00,29.85 Z" />
</svg>